<?xml version="1.0" standalone="no"?>
<!DOCTYPE svg PUBLIC "-//W3C//DTD SVG 20010904//EN"
 "http://www.w3.org/TR/2001/REC-SVG-20010904/DTD/svg10.dtd">
<svg version="1.0" xmlns="http://www.w3.org/2000/svg"
 width="512.000000pt" height="512.000000pt" viewBox="0 0 512.000000 512.000000"
 preserveAspectRatio="xMidYMid meet">

<g transform="translate(0.000000,512.000000) scale(0.100000,-0.100000)"
fill="#000000" stroke="none">
<path d="M2495 5114 c-44 -12 -2042 -858 -2066 -875 -26 -18 -59 -83 -59 -116
0 -9 9 -36 21 -60 16 -33 33 -50 68 -67 25 -13 501 -227 1057 -475 662 -295
1023 -451 1044 -451 21 0 383 156 1044 451 556 248 1033 463 1061 477 40 22
53 36 69 74 17 42 18 52 7 90 -7 23 -25 53 -41 67 -17 16 -410 187 -1045 455
-910 383 -1025 429 -1079 432 -34 1 -70 0 -81 -2z m-875 -774 c277 -81 281
-316 7 -402 -209 -66 -476 6 -531 143 -27 68 -15 113 49 175 103 102 296 136
475 84z m1095 4 c73 -18 132 -52 173 -98 109 -124 11 -275 -207 -322 -240 -51
-493 58 -493 212 0 165 268 271 527 208z m1080 5 c161 -31 268 -143 236 -249
-16 -55 -50 -92 -119 -128 -144 -77 -351 -80 -491 -8 -236 122 -134 359 171
394 68 9 125 6 203 -9z"/>
<path d="M235 3811 c-23 -12 -50 -36 -60 -53 -20 -32 -20 -58 -20 -1358 l0
-1325 24 -53 c49 -108 23 -95 1102 -576 1077 -481 1045 -469 1115 -419 69 49
64 -52 64 1432 0 1472 3 1397 -59 1440 -46 32 -2055 923 -2091 928 -23 3 -49
-3 -75 -16z m1058 -1432 c78 -21 149 -116 182 -240 19 -69 19 -240 1 -300 -31
-102 -92 -180 -152 -195 -211 -53 -362 343 -234 614 35 74 95 125 155 131 6 0
27 -4 48 -10z"/>
<path d="M4770 3819 c-101 -40 -2031 -906 -2051 -921 -62 -42 -59 33 -59
-1436 0 -1293 1 -1338 19 -1379 24 -52 86 -88 140 -80 20 3 479 202 1020 443
1079 481 1053 468 1102 576 l24 53 0 1325 c0 1302 0 1326 -20 1358 -21 35 -87
72 -126 71 -13 0 -35 -5 -49 -10z m-424 -778 c42 -26 81 -78 106 -143 29 -75
36 -240 13 -327 -35 -136 -106 -229 -191 -250 -42 -11 -51 -10 -92 11 -91 45
-141 148 -149 303 -10 178 55 340 162 406 39 25 111 25 151 0z m-866 -1463
c54 -27 103 -95 127 -177 26 -85 23 -247 -6 -331 -45 -132 -115 -208 -196
-218 -59 -6 -97 11 -144 64 -155 177 -89 600 105 669 53 19 63 18 114 -7z"/>
</g>
</svg>
